<?xml version="1.0" encoding="utf-8"?>
<!-- Generator: Adobe Adobe Illustrator 24.2.0, SVG Export Plug-In . SVG Version: 6.00 Build 0)  -->
<svg version="1.1" id="Layer_1" xmlns="http://www.w3.org/2000/svg" xmlns:xlink="http://www.w3.org/1999/xlink" x="0px" y="0px"
	 width="1000px" height="1000px" viewBox="0 0 1000 1000" style="enable-background:new 0 0 1000 1000;" xml:space="preserve">
<style type="text/css">
	.st0{fill:#0071BC;}
	.st1{fill:#945A47;}
	.st2{fill:#CF9275;}
	.st3{fill:#AA6361;}
	.st4{fill:#77462F;}
	.st5{fill:#B6745A;}
	.st6{fill:#855946;}
	.st7{fill:#9E8785;}
	.st8{fill:#30291F;}
	.st9{fill:#181006;}
	.st10{fill:#452F21;}
	.st11{fill:#4D3526;stroke:#452F21;stroke-miterlimit:10;}
	.st12{fill:#5E3C30;}
	.st13{fill:#331105;}
	.st14{fill:#948079;}
	.st15{fill:#403730;}
	.st16{fill:#5F4537;}
	.st17{fill:#140F08;}
	.st18{fill:#4F4E46;}
	.st19{fill:#461708;}
	.st20{fill:#471709;}
	.st21{fill:#5C1B19;}
	.st22{fill:#D59E9E;}
	.st23{fill:url(#SVGID_1_);}
</style>
<rect x="41.41" y="98" class="st0" width="900" height="846"/>
<path class="st1" d="M414.59,424.11c0,0,8.13-2.55,10.84-3.41c4-1.27,12.55-2.2,16.72-1.7c4.35,0.51,16.88,4.65,16.88,4.65
	l-2.63-30.04c0,0-15.65,9.68-21.21,12.23c-4.46,2.04-14.99,4.08-19.51,2.17c-3.3-1.4-9.91-10.37-9.91-10.37L414.59,424.11z"/>
<path class="st2" d="M352.38,706.4c3.33,3.82,12.06,9.31,16.42,11.91c9.81,5.86,28.65,19.55,39.59,22.85
	c13.59,4.1,42.45,3.9,56.65,3.86c5.79-0.02,17.38,0.13,23.17,0c7.09-0.16,21.57,0.87,28.32-1.29c7.17-2.29,19.42-11.57,25.43-16.09
	c7.39-5.57,22.53-16.25,29.61-22.21c5.92-4.98,18.01-14.96,22.53-21.24c10.34-14.37,33.21-49.66,37.9-66.73
	c6.67-24.3,12.65-76.59,12.16-101.78c-0.58-30.05-9.62-73.16-18.06-98.86c-3.71-11.29-12.98-33.63-15.96-45.13
	c-1.75-6.78-3.84-21-3.97-28c-0.12-6.62-3.5-29.24-5.93-35.39c-3.85-9.76-13.05-17.02-20.75-24.15
	c-11.96-11.09-31.01-34.11-45.86-40.88c-6.58-3-26.1-9.9-33.32-9.79c-13.77,0.21-47,3.49-60.4,6.69
	c-12.32,2.95-37.31,10.08-49.92,11.2c-6.6,0.58-20.92-2.99-27.39-1.57c-6.52,1.42-13.62,7.96-18.21,12.81
	c-18.77,19.85-25.2,41.58-31.29,53.71c-6.81,13.56-14.49,33.35-16.55,47.07c-2.13,14.18-8.99,49.65-9.76,63.97
	c-0.46,8.44,8.15,25.43,7,33.8c-1.03,7.49-6.64,21.69-8.69,28.97c-2.44,8.63-7.29,26.12-7.4,35.08c-0.16,12.63-0.93,25.9,3.05,37.89
	c4.5,13.57,10.88,40.47,17.5,53.14c5.7,10.92,21.29,38.12,26.82,49.13C329.66,674.49,345.66,698.7,352.38,706.4z"/>
<path class="st3" d="M438.22,628.43c5.19,0.01,15.59-0.53,20.66-1.61c7.97-1.7,23.65-6.44,31.15-9.63
	c6.79-2.88,20.27-9.15,26.25-13.46c1.58-1.14,4.51-5.14,4.19-7.05c-0.54-3.29-7.13-3.63-10.4-4.23c-4.63-0.85-13.98-1.9-18.65-2.41
	c-3.77-0.41-12.28-3.09-16.07-3.12c-3.86-0.03-9.14,0.69-12.89,1.62c-3.35,0.83-11.02,5.45-14.39,6.2c-2.28,0.51-8-0.05-10.33-0.22
	c-2.88-0.2-8.1-1.54-10.98-1.74c-2.86-0.2-8.1-0.74-10.95-0.46c-2.46,0.24-7.31,2.49-9.68,3.18c-2.66,0.77-6.01,1.9-8.47,3.16
	c-2.11,1.08-10.23,7.04-8.6,5.32c0.9-0.96-5.03,2.75-4.97,4.96c0.11,3.97,6,8.78,9.72,10.16c5.46,2.03,16.39,6.2,22.07,7.48
	C421.36,627.8,432.61,628.41,438.22,628.43z"/>
<path class="st4" d="M354.23,609.11c1.84,0.85-1.66,5.96-1.44,7.97c0.24,2.24,3.69,5.75,5.41,7.19c1.18,0.98,4.7,2.09,4.98,3.6
	c0.11,0.61-0.79,2.02-1.41,2.06c-2.13,0.12-5.42-3.52-6.82-5.13c-1.11-1.27-3.66-3.62-4.36-5.16c-0.53-1.17-1.03-3.8-0.8-5.07
	C350.1,612.84,352.63,608.38,354.23,609.11z"/>
<path class="st5" d="M478.34,502.19c0,0,14.48,6.73,19.01,9.5c8.7,5.33,20.05,23.2,25.79,31.64c3.87,5.69,15.97,22.44,15.97,22.44
	s4.17-18.07,2.07-23.61c-2.44-6.41-9.56-18.59-14.64-23.19c-5.09-4.61-17.41-11.13-23.69-13.9
	C497.2,502.57,478.34,502.19,478.34,502.19z"/>
<path class="st6" d="M303.44,459.78c0,0,13.74-11.69,18.23-14.91c4.69-3.36,13.32-8.35,18.17-10.91c4.46-2.35,12.94-5.01,17.84-6.2
	c3.34-0.81,9.91-2.78,14.32-2.33c4.96,0.51,13.58,7.04,17.29,10.39c2.55,2.3,8.12,6.91,9.67,9.97c0.61,1.2,1.92,3.69,1.11,4.76
	c-1.72,2.26-9.63,2.09-12.47,2.16c-10.03,0.26-29.11,4.99-39.14,4.57c-4.77-0.2-18.01-4.16-18.56-4.43s-10.57,1.81-13.85,3.19
	C313.02,457.32,303.44,459.78,303.44,459.78z"/>
<path class="st6" d="M483.08,437.58c0,0,2.86-2.98,3.53-4.18c1.23-2.22,0.03-7.66,0.65-10.12c0.56-2.22,3.17-6.23,4.92-7.7
	c2.43-2.03,8.04-5.37,11.14-6.03c4.45-0.95,13.67-0.28,18.19,0.19c4.63,0.48,13.86,1.64,18.47,2.32c5.26,0.78,15.9,1.85,20.97,3.43
	c3.08,0.96,9.11,3.55,11.69,5.48c0.99,0.74,3.8,2.35,3.43,3.53c-0.44,1.42-4.27,1.4-5.75,1.48c-4.47,0.25-13.4,1.04-17.82,1.76
	c-5.34,0.87-15.88,3.38-21.16,4.55c-5.21,1.15-15.59,3.68-20.88,4.36c-3.48,0.45-10.54,0.23-14.01,0.74
	C493.14,437.87,483.08,437.58,483.08,437.58z"/>
<path class="st7" d="M499.18,426.8c0.2-1.13,1.39-3.32,2.15-4.18c0.76-0.85,3.19-2.39,4.21-2.91c4.38-2.26,6.09-1.84,6.09-1.84
	s-2.01,3.81-2.76,5.04c-0.62,1.01-1.48,3.29-1.62,4.47c-0.12,1.04-0.21,3.21,0.19,4.18c0.32,0.76,2.09,2.57,2.09,2.57
	s-7.85,1.92-9.48-1.59C499.51,431.34,498.95,428.09,499.18,426.8z"/>
<path class="st7" d="M533.43,416.74c0,0,4.34,0.09,5.6,0.58c2.39,0.94,7.89,0.34,9.16,2.37c0.47,0.76-0.43,2.53-1.04,3.18
	c-0.96,1.02-3.4,2.49-4.68,3.07c-1.69,0.77-6.96,2.55-6.96,2.55s0.85-3.77,0.81-5.27c-0.04-1.23-1.07-3.74-1.9-4.66
	C534.07,418.17,533.43,416.74,533.43,416.74z"/>
<path class="st8" d="M512.08,417.67c0.95-0.67,3.26-1.32,4.41-1.45c1.43-0.17,4.33-0.06,5.77-0.06c1.4,0,4.18-0.17,5.58-0.14
	c1.13,0.02,3.51-0.19,4.53,0.33c0.94,0.48,2.32,2.23,2.79,3.18c0.43,0.86,1.09,2.7,1.2,3.66c0.11,1.03,0.28,3.22-0.21,4.14
	c-0.46,0.86-2.14,2.05-3,2.52c-1.49,0.82-4.57,2.35-6.2,2.85c-1.52,0.46-4.67,1.07-6.26,1.17c-2.06,0.13-6.2-0.13-8.27-0.21
	c-0.91-0.04-2.9,0.45-3.63-0.09c-1.24-0.93-2-4.36-1.86-5.9c0.13-1.43,1.06-4.2,1.71-5.48
	C509.26,420.89,510.92,418.48,512.08,417.67z"/>
<path class="st9" d="M516.36,424.32c0.23-0.58,0.91-1.69,1.41-2.07c0.75-0.57,2.51-1.49,3.45-1.5c0.76-0.01,2.29,0.48,2.91,0.93
	c0.83,0.61,2.33,2.14,2.73,3.09c0.28,0.66,0.55,2.14,0.42,2.85c-0.16,0.88-0.88,2.59-1.47,3.27c-0.45,0.51-1.53,1.45-2.19,1.59
	c-1.01,0.21-3.19-0.1-4.08-0.63c-0.77-0.47-1.99-1.86-2.46-2.64c-0.34-0.57-0.98-1.77-1.08-2.43
	C515.91,426.16,516.14,424.9,516.36,424.32z"/>
<path class="st10" d="M251.88,677.61c5.95,13.13,28.63,31.49,39.68,41.8c14.21,13.27,59.87,49.64,59.87,49.64s10.42-43.8,5.27-57.18
	c-4.94-12.84-23.47-34.64-30.44-46.51c-7.98-13.58-20.65-42.53-26.45-57.18c-3.52-8.88-10.83-26.6-13.23-35.84
	c-2.17-8.37-5.29-25.49-5.55-34.14c-0.27-9.09,0.73-27.36,2.56-36.27c1.66-8.1,8.36-23.44,9.81-31.58
	c2.02-11.34,0.24-34.58,0.85-46.08c0.89-16.78,5.2-50.29,9.39-66.56c4.05-15.75,12.71-47.66,21.33-61.44
	c6.92-11.07,23.38-34.09,35.84-37.98c5.66-1.77,17.54,3.48,23.47,3.41c11.74-0.13,33.54-10.76,44.8-14.08
	c10.6-3.13,32.53-6.57,43.52-7.68c8.3-0.84,25.17-4.08,33.28-2.13c12.69,3.04,35.45,17.4,45.23,26.03
	c13.64,12.04,42.34,36.86,49.07,53.76c4.39,11.02,0.72,35.65,2.56,47.36c2.06,13.07,14.35,37.02,18.77,49.5
	c5.3,14.95,13.77,45.71,15.79,61.44c2.42,18.84,4.44,57.05,2.56,75.95c-2.07,20.8-9.46,62.3-16.64,81.92
	c-4.8,13.13-22.3,31.49-26.17,44.92c-6.87,23.82-4.55,103.99-4.55,103.99s43.92-1.25,53.34-11.09
	c15.68-16.39,30.63-61.65,34.14-84.06c4.85-31.01,7.19-94.1,5.55-125.45c-1.95-37.09-8.53-111.39-16.64-147.64
	c-7.68-34.3-24.46-103.91-42.67-133.98c-10.36-17.11-37.08-48.83-54.62-58.46c-14.97-8.22-43.38-13.48-58.14-22.07
	c-5.37-3.13-18.25-11.38-23.79-14.2c-10.75-5.48-36.44-0.08-48.22,2.56c-13.68,3.07-41.57,7.66-54.62,12.8
	c-13.82,5.45-46.51,26.45-51.63,29.44c-5.12,2.99-45.08,35.61-55.04,51.63c-10.93,17.57-19.23,59.11-23.47,79.36
	c-5.69,27.2-10.38,82.77-11.95,110.51c-1.27,22.58-0.43,85.74-2.56,90.43S240.58,652.67,251.88,677.61z"/>
<path class="st11" d="M476.59,368.64c-5.56,5.2-10.35,14.42-8.12,18.09c1.3,2.13,7.64,0.86,9.98,0c4.05-1.49,11.49-6,15.45-7.72
	c4.9-2.14,15.06-5.61,20.28-6.76c6.19-1.36,14.28-3.24,22.11-4.04c23.15-2.38,46.7,14.16,46.7,14.16s-23.65-27.44-62.57-25.07
	C497.66,358.7,478.15,367.18,476.59,368.64z"/>
<path class="st11" d="M297.37,418.23c0,0,6.94-7.79,9.29-10.36c2.76-3.01,9.9-7.57,13.81-8.76c4.61-1.4,36.02-4.36,41.69-3.72
	c5.8,0.66,16.51,7.56,22.31,6.9c3.57-0.41,11.71-4.38,11.95-7.97c0.27-3.99-6.58-10.9-10.36-12.22c-5.77-2.01-18.35-0.79-24.43-0.27
	c-7.43,0.65-22.48,0.68-29.74,2.39c-4.46,1.05-13.18,4.37-17,6.9c-3.95,2.63-11.25,8.93-14.07,12.75
	C298.63,406.86,297.37,418.23,297.37,418.23z"/>
<path class="st12" d="M488.27,430.14c0,0,3.52-2.96,4.47-4.16c1.18-1.49,3.87-4.21,5.3-5.46c1.62-1.41,4.83-4.36,6.76-5.3
	c2.01-0.98,6.4-2.1,8.63-2.29c2.02-0.17,6.09,0.09,8.11,0.26c2.48,0.2,7.45,0.63,9.92,0.94c4.25,0.53,12.84,1.32,16.94,2.55
	c2.32,0.7,6.95,5.52,8.83,4c1-0.81-0.26-4.22-1.3-4.99c-2.14-1.57-7.75-1.91-10.39-2.13c-3.59-0.3-10.75-1.14-14.34-1.45
	c-3.18-0.28-9.54-0.74-12.73-0.88c-2.18-0.1-6.59-0.68-8.73-0.26c-2.7,0.53-7.89,2.75-10.08,4.42c-2.18,1.66-5.64,5.97-7.48,8
	C490.86,424.83,488.27,430.14,488.27,430.14z"/>
<path class="st13" d="M324.7,449.85c0,0,3.94-2.55,5.37-3.18c1.34-0.58,3.71-2.32,4.99-3.02c0.72-0.39,2.4-1.86,3.02-1.32
	c0.77,0.69-1.19,2.97-1.1,4c0.1,1.1,3.2,2.35,2.85,3.4c-0.71,2.17-6.82,0.62-9.1,0.6C329.21,450.33,324.7,449.85,324.7,449.85z"/>
<path class="st14" d="M352.59,437.17c-1.48,0.28-4.36,1.15-5.76,1.7c-1.21,0.48-3.53,1.66-4.72,2.19c-0.93,0.42-3.11,0.81-3.78,1.59
	c-0.75,0.87-1.49,3.37-1.1,4.44c0.38,1.04,2.13,2.73,3.18,3.07c1.06,0.34,3.33,0,4.44,0c1.28,0,3.83,0.34,5.1,0.55
	c0.61,0.1,1.99,0.88,2.41,0.44c1.06-1.09-0.99-4.44-1.32-5.92c-0.15-0.7-0.17-2.18,0.05-2.85c0.33-0.98,1.72-2.59,2.19-3.51
	c0.22-0.42,0.9-1.44,0.6-1.81C353.7,436.8,352.91,437.11,352.59,437.17z"/>
<path class="st14" d="M381.43,439.03c0,0,0.94,3.42,1.18,4.61c0.19,0.97-2.1,5.64-2.1,5.64s4.15-0.63,4.99-0.68
	c1.09-0.06,3.65-0.05,4.33-0.91c0.65-0.82,0.33-3.28-0.22-4.17c-0.58-0.95-2.42-2.34-3.35-2.96
	C385.21,439.86,381.43,439.03,381.43,439.03z"/>
<path class="st15" d="M354.23,437.11c0.77-0.58,2.72-1.02,3.67-1.15c1.14-0.15,3.45-0.27,4.61-0.33c1.55-0.08,4.65-0.35,6.2-0.33
	c1.72,0.02,5.22,0.01,6.86,0.55c1.38,0.45,4.85,2.31,5.74,3.46c0.68,0.88,1.44,2.81,1.54,3.92c0.1,1.14-0.74,3.23-1.13,4.3
	c-0.23,0.62-0.89,1.86-1.43,2.25c-1.67,1.21-5.79,2.34-7.84,2.58c-1.93,0.23-5.84,0.16-7.79,0.11c-1.66-0.04-4.98-0.08-6.64-0.22
	c-1.27-0.1-4.09,0.18-5.05-0.66c-1.24-1.09-1.81-3.36-2.26-6.61c-0.15-1.11,0.55-3.3,1.05-4.19
	C352.78,438.99,353.35,437.77,354.23,437.11z"/>
<path class="st16" d="M328.02,442.93c-0.91,0.74-3.31,1.83-3.62,2.96c-0.1,0.38,0.16,1.4,0.55,1.48c1.3,0.28,3.4-2.13,4.33-3.07
	c0.67-0.68,1.99-2.08,2.8-2.58c1.63-1,5.32-2.13,7.13-2.74c1.95-0.66,5.76-2.24,7.73-2.8c1.74-0.49,5.3-1.1,7.07-1.43
	c2.33-0.42,6.97-1.49,9.32-1.76c1.83-0.21,5.51-0.39,7.35-0.27c1.11,0.07,3.6,1.38,4.39,0.6c0.43-0.42,0.12-1.97-0.33-2.36
	c-1.01-0.88-3.87-1.26-5.21-1.26c-2.04,0-6.11,0.44-8.12,0.77c-2.06,0.34-6.16,1.11-8.17,1.65c-2.17,0.58-6.46,1.94-8.56,2.74
	c-1.67,0.64-4.93,2.11-6.58,2.8c-1.73,0.72-5.34,1.81-6.97,2.74C330.27,440.9,328.8,442.29,328.02,442.93z"/>
<path class="st17" d="M362.26,442.27c-0.86,1.74-0.17,3.68,0.09,4.27c0.38,0.86,2,1.85,2.93,1.97c1.19,0.17,3.91-0.57,4.77-1.74
	c0.71-0.96,0.83-4.46-0.45-5.78c-0.77-0.79-3.49-1.16-4.37-0.95C364.07,440.34,362.9,440.99,362.26,442.27z"/>
<polygon class="st18" points="363.06,444.37 364.61,444.62 365.48,446.59 366.11,444.8 367.63,444.01 366.02,443.36 365.33,441.89 
	364.61,443.48 "/>
<path class="st19" d="M448.74,539.4c-2.11-0.23-3.75-5.97-3-7.95c0.49-1.28,2.84-3.08,4.1-3.64c2.44-1.09,7.69-2.34,10.33-2.76
	c2.83-0.45,8.52-1.12,11.38-1.19c3-0.07,9.39-1.04,11.99,0.46c1.24,0.72,3.69,3.48,3.13,4.8c-1.07,2.52-7.63,3.31-10.35,3.6
	c-3.46,0.37-10.39,1.34-13.87,1.35c-2.42,0-7.59-2.16-9.64-0.87C451.23,534.18,450.58,539.61,448.74,539.4z"/>
<path class="st5" d="M401.99,512.66c0.59,2.51-7.34,2.55-9.57,3.84c-2.47,1.43-6.41,6.28-6.9,9.08c-0.42,2.4,2,7.18,1.71,9.6
	c-0.46,3.74-5.9,9.66-7.62,13.01c-2.24,4.37-4.29,14.09-5.61,18.82c-0.95,3.4-0.83,13.49-4.36,13.42c-4.7-0.09-5.2-13.31-5.37-18
	c-0.2-5.24-2.89-16.17-0.79-20.98c1.08-2.49,6.03-5.5,8.22-7.09c1.98-1.43,6.15-4.17,7.59-6.14c1.52-2.08,2.51-7.38,3.9-9.54
	c1.01-1.56,3.87-4.1,5.51-4.97C391.63,512.15,401.22,509.42,401.99,512.66z"/>
<path class="st19" d="M395.3,536.66c-0.83-0.75-0.36-3.71,0.49-4.43c1.02-0.87,3.93-0.99,5.27-0.98c2.13,0.02,6.39,0.2,8.51,0.35
	c1.92,0.13,6.22-0.6,7.68,0.65c0.98,0.84,1.97,3.94,1.26,5.03c-0.83,1.26-4.18,2.29-5.67,2.04c-1.68-0.29-4.4-2.66-6-3.26
	c-1.31-0.5-4.18-0.97-5.55-0.69C399.79,535.65,396.44,537.68,395.3,536.66z"/>
<path class="st20" d="M369.56,617.6c0.05,0.73,1.12,2.39,1.84,2.26c1.35-0.25,1.9-3.65,2.58-4.83c0.61-1.06,2.33-2.94,3.43-3.47
	c1.55-0.75,5.35-0.3,6.74-1.31c0.53-0.38,1.47-1.86,1.07-2.37c-0.75-0.96-3.69-0.23-4.86,0.09c-1.21,0.33-3.75,0.77-4.82,1.43
	c-0.95,0.59-2.35,2.4-3.06,3.26C371.56,613.76,369.45,616.17,369.56,617.6z"/>
<path class="st20" d="M522.8,595.09c-0.92,0.05-3.17-0.79-3.69-0.03c-0.37,0.54,0.46,2.1,1.03,2.41c0.84,0.45,2.84,0.27,3.79,0.25
	c0.97-0.02,2.96-0.24,3.87,0.08c1.25,0.44,3.27,2.27,4.23,3.17c0.85,0.79,2.2,3.11,3.35,3.22c0.51,0.05,1.61-0.63,1.73-1.13
	c0.19-0.82-0.66-2.49-1.14-3.18c-0.51-0.73-1.66-2.11-2.3-2.73c-0.6-0.58-1.78-1.85-2.55-2.16c-1-0.4-3.21-0.43-4.28-0.35
	C525.84,594.71,523.82,595.04,522.8,595.09z"/>
<path class="st21" d="M401.19,607.38c0,0,11.73,0.7,15.61,0.29c4.33-0.46,13.07,0.48,17.42,0.37c5.14-0.13,15.35-1.62,20.44-2.35
	c4.24-0.61,12.73-1.79,16.98-2.41c5.05-0.74,20.19-3.04,20.19-3.04s-19.24-0.29-25.51,0.9c-5.52,1.05-16.77,1.69-22.37,2.09
	c-4.06,0.29-12.16,1.11-16.22,1.32c-3.26,0.17-9.79,0.31-13.06,0.22C411.23,604.68,401.19,607.38,401.19,607.38z"/>
<path class="st22" d="M478.52,608.53c0.41-3,8.64-3.05,11.65-3.24c2.46-0.16,8.9-3.32,9.81-1.03c1.08,2.71-6.55,6.21-9.36,6.99
	c-1.47,0.41-4.51,1.08-6.04,0.95C482.82,612.04,478.28,610.29,478.52,608.53z"/>
<path class="st1" d="M439.74,533.84c-1.45-2.42-5.73-6.33-8.1-7.87c-1.72-1.12-5.7-4.95-7.34-3.71c-2.52,1.91,0.42,9.76,2,12.51
	c1.05,1.83,4.04,4.9,5.03,6.76c0.77,1.46,2.58,4.81,1.91,6.32c-0.51,1.15-3.23,1.95-4.38,2.45c-1.33,0.57-3.69,2.52-5.13,2.7
	c-2.82,0.34-8.23-2.18-10.93-3.04c-2.12-0.68-8.12-4.15-8.69-1.99c-1.83,6.91,20,9.34,27.15,9.02c3.29-0.15,9.79-1.48,13.02-2.13
	c3.13-0.63,9.51-1.49,12.54-2.5c0,0,0,0,0,0c0.55-0.26,1.65-0.79,2.19-1.05c1.98-0.95,6.51-2.13,7.93-3.81
	c0.78-0.93,2.35-3.97,1.35-4.66c-2.27-1.56-7.27,3.95-9.6,5.44c-1.48,0.94-4.79,2.81-6.53,2.57c-1.81-0.25-4.91-2.65-6.12-4.02
	c-1.35-1.54-3.81-4.91-4.56-6.83C440.92,538.49,440.56,535.21,439.74,533.84z"/>
<linearGradient id="SVGID_1_" gradientUnits="userSpaceOnUse" x1="489.9645" y1="813.5772" x2="479.5857" y2="732.9887">
	<stop  offset="0" style="stop-color:#CF9076;stop-opacity:0.651"/>
	<stop  offset="1" style="stop-color:#B6745A"/>
</linearGradient>
<path class="st23" d="M356.79,746.32c1.66-8.67-0.64-35.31-0.64-35.31s43.61,21.48,63.11,28.24c17.44,6.04,70.21,5.28,87.83-0.21
	c17.75-5.54,47.36-20.2,61.48-32.31c7.81-6.69,28.53-27.81,28.75-28.24s-3.91,56.95-4.49,75.97c-0.26,8.4,0,33.6,0,33.6
	s-66.62,16.47-89.23,15.41c-18.16-0.86-54.63-1.83-72.54-4.92c-13.99-2.41-41.23-10.73-54.78-14.98
	C369.59,781.46,355.64,752.34,356.79,746.32z"/>
</svg>
